<svg id="b3476446-c29b-489b-91f9-6dd64a8ef5f6" data-name="Layer 1" xmlns="http://www.w3.org/2000/svg" width="713.36746" height="781.27553" viewBox="0 0 713.36746 781.27553">
    <title>referral</title>
    <path d="M872.7484,765.28719l-229.21475.75921c-60.81042-18.2721-110.63231-81.736-110.94745-176.88721a269.465,269.465,0,0,1,3.23811-42.81223l184.62183-41.47768,142.42432-31.995a283.26116,283.26116,0,0,1,29.25631,30.4193l-136.19064,71.9123L691.689,609.13206l72.19443-24.90689,149.84346-51.69429a363.36982,363.36982,0,0,1,24.91621,44.67248L893.432,623.9282l51.14434-33.48237q.32789.76935.653,1.54117C977.64276,668.937,937.42608,765.073,872.7484,765.28719Z" transform="translate(-243.31627 -59.36223)" fill="#f2f2f2"/>
    <path d="M835.07951,451.33807c-34.66293,9.9552-77.27874,22.53336-121.09466,35.60691-63.35145,18.90781-129.20892,38.86137-177.15524,53.44709l.0313-.171a65.899,65.899,0,0,1,12.15994-28.22451c35.51715-46.17886,80.74258-78.4385,131.07658-90.4187h.00442a188.90679,188.90679,0,0,1,43.20152-5.15431C763.34926,416.29093,801.28113,428.85107,835.07951,451.33807Z" transform="translate(-243.31627 -59.36223)" fill="#f2f2f2"/>
    <ellipse cx="360.21666" cy="710.53603" rx="228" ry="17" fill="#3f3d56"/>
    <path d="M569.53293,488.16005c0,122.83942-73.02608,165.73036-163.10833,165.73036S243.31627,610.99947,243.31627,488.16005,406.4246,209.0495,406.4246,209.0495,569.53293,365.32062,569.53293,488.16005Z" transform="translate(-243.31627 -59.36223)" fill="#f2f2f2"/>
    <polygon points="157.167 575.737 158.837 472.932 228.358 345.747 159.099 456.805 159.85 410.579 207.763 318.562 160.048 398.346 160.048 398.347 161.399 315.208 212.706 241.951 161.611 302.134 162.455 149.687 157.152 351.5 157.588 343.174 105.424 263.329 156.751 359.156 151.89"/>
</svg>